<svg width="44" height="36" viewBox="0 0 44 36" fill="none" xmlns="http://www.w3.org/2000/svg">
<path d="M0.00228547 33.4061C0.00228547 34.1192 0.303968 34.7363 0.907332 35.2574C1.5107 35.7785 2.24814 36.0254 3.11967 35.9979H25.1425V35.5454C23.2653 35.0243 21.7402 34.0918 20.567 32.7478C19.3937 31.4039 18.8239 29.9091 18.8574 28.2635C18.8574 26.5356 19.4775 24.9997 20.7178 23.6558C21.958 22.3119 23.567 21.4068 25.5447 20.9405C25.947 19.8983 26.5838 18.9658 27.4554 18.143C28.3269 17.3202 29.3828 16.6756 30.623 16.2094C31.1594 15.03 31.4275 13.9055 31.4275 12.8358V10.2851C31.4275 7.43272 30.1873 5.00543 27.7068 3.00326C25.2263 1.00109 22.2765 0 18.8574 0C15.4384 0 12.4718 1.00109 9.9578 3.00326C7.44378 5.00543 6.22029 7.43272 6.28733 10.2851V12.8358C6.28733 14.646 6.82365 16.3191 7.8963 17.855C8.96895 19.3909 10.4271 20.6388 12.2707 21.5988C10.6952 22.065 9.17007 22.7096 7.69518 23.5324C6.22029 24.3552 4.913 25.274 3.77331 26.2888C2.63362 27.3036 1.71182 28.4281 1.00789 29.6623C0.303967 30.8965 -0.0312348 32.1444 0.00228547 33.4061ZM25.1425 28.2635C25.1425 28.9766 25.4441 29.5937 26.0475 30.1149C26.6509 30.636 27.3883 30.8828 28.2599 30.8554H31.4275V33.4061C31.4275 34.1466 31.7292 34.7637 32.3326 35.2574C32.9359 35.7511 33.6734 35.9979 34.5449 35.9979C35.4164 35.9979 36.1539 35.7511 36.7572 35.2574C37.3606 34.7637 37.679 34.1466 37.7126 33.4061V30.8554H40.8299C41.7015 30.8554 42.4389 30.6085 43.0423 30.1149C43.6456 29.6212 43.9641 29.0041 43.9976 28.2635C44.0311 27.523 43.7127 26.9196 43.0423 26.4533C42.3719 25.9871 41.6344 25.7402 40.8299 25.7128H37.7126V23.121C37.7126 22.4079 37.3941 21.8045 36.7572 21.3108C36.1203 20.8171 35.3829 20.5703 34.5449 20.5703C33.7069 20.5703 32.9694 20.8171 32.3326 21.3108C31.6957 21.8045 31.394 22.4079 31.4275 23.121V25.7128H28.2599C27.3883 25.7128 26.6509 25.9597 26.0475 26.4533C25.4441 26.947 25.1425 27.5504 25.1425 28.2635Z" fill="black"/>
</svg>
